<svg width="17" height="17" viewBox="0 0 17 17" fill="none" xmlns="http://www.w3.org/2000/svg">
<g clip-path="url(#clip0_1597_4938)">
<path d="M7.84997 8.01805C9.85435 8.01805 11.4792 6.39317 11.4792 4.38878C11.4792 2.3844 9.85435 0.759521 7.84997 0.759521C5.84558 0.759521 4.2207 2.3844 4.2207 4.38878C4.2207 6.39317 5.84558 8.01805 7.84997 8.01805Z" fill="white"/>
<path d="M8.94143 16.7595C8.83441 16.7492 8.73581 16.697 8.66714 16.6143C8.59846 16.5316 8.56529 16.4251 8.57486 16.318C8.57673 16.2921 8.58021 16.2664 8.58528 16.2409L8.93935 14.5497C8.95678 14.4661 8.99759 14.3892 9.05703 14.3279L13.0799 10.3008C13.5746 9.80405 14.0287 9.9665 14.2671 10.256L14.8711 10.985C15.0319 11.1874 15.1137 11.4414 15.1013 11.6996C15.0888 11.9578 14.983 12.2028 14.8034 12.3888L10.7764 16.4211C10.7203 16.4778 10.6471 16.5144 10.5681 16.5252L9.006 16.7522C8.98474 16.7566 8.96313 16.7591 8.94143 16.7595Z" fill="white"/>
<path d="M8.38137 14.0956L3.06296 14.1352C2.67218 13.9264 2.35215 13.6064 2.1434 13.2156C1.96095 12.8291 1.87859 12.403 1.90389 11.9764C1.97574 10.9214 3.00568 9.86441 4.50737 9.29685C5.33581 8.90458 6.23143 8.67379 7.14627 8.61682C7.70134 8.58246 8.56882 8.76887 10.3059 9.13752C11.0421 9.29477 11.6128 9.43536 11.945 9.93731C12.0835 10.1539 12.1658 10.4016 12.1845 10.658L8.38137 14.0956Z" fill="white"/>
</g>
<defs>
<clipPath id="clip0_1597_4938">
<rect width="13.207" height="16" fill="white" transform="translate(1.89648 0.759521)"/>
</clipPath>
</defs>
</svg>
