<svg width="25" height="25" viewBox="0 0 25 25" fill="none" xmlns="http://www.w3.org/2000/svg">
<path d="M18.4194 5.99V6.73L14.8794 4.68C13.5394 3.91 11.6694 3.91 10.3394 4.68L6.79938 6.74V5.99C6.79938 3.74 8.02938 2.5 10.2794 2.5H14.9394C17.1894 2.5 18.4194 3.74 18.4194 5.99Z" fill="white"/>
<path d="M18.4494 8.46999L18.3094 8.39999L16.9494 7.61999L14.1294 5.98999C13.2694 5.48999 11.9494 5.48999 11.0894 5.98999L8.26937 7.60999L6.90938 8.40999L6.72937 8.49999C4.97937 9.67999 4.85938 9.89999 4.85938 11.79V16.31C4.85938 18.2 4.97937 18.42 6.76937 19.63L11.0894 22.12C11.5194 22.38 12.0594 22.49 12.6094 22.49C13.1494 22.49 13.6994 22.37 14.1294 22.12L18.4894 19.6C20.2494 18.42 20.3594 18.21 20.3594 16.31V11.79C20.3594 9.89999 20.2394 9.67999 18.4494 8.46999ZM15.3994 14L14.7894 14.75C14.6894 14.86 14.6194 15.07 14.6294 15.22L14.6894 16.18C14.7294 16.77 14.3094 17.07 13.7594 16.86L12.8694 16.5C12.7294 16.45 12.4994 16.45 12.3594 16.5L11.4694 16.85C10.9194 17.07 10.4994 16.76 10.5394 16.17L10.5994 15.21C10.6094 15.06 10.5394 14.85 10.4394 14.74L9.81938 14C9.43937 13.55 9.60937 13.05 10.1794 12.9L11.1094 12.66C11.2594 12.62 11.4294 12.48 11.5094 12.36L12.0294 11.56C12.3494 11.06 12.8594 11.06 13.1894 11.56L13.7094 12.36C13.7894 12.49 13.9694 12.62 14.1094 12.66L15.0394 12.9C15.6094 13.05 15.7794 13.55 15.3994 14Z" fill="white"/>
</svg>
