<svg width="21" height="21" viewBox="0 0 21 21" fill="none" xmlns="http://www.w3.org/2000/svg">
<path d="M16.2048 4.02116H14.5381V3.18783C14.5381 2.96681 14.4503 2.75485 14.294 2.59857C14.1377 2.44229 13.9258 2.35449 13.7048 2.35449C13.4837 2.35449 13.2718 2.44229 13.1155 2.59857C12.9592 2.75485 12.8714 2.96681 12.8714 3.18783V4.02116H7.87142V3.18783C7.87142 2.96681 7.78362 2.75485 7.62734 2.59857C7.47106 2.44229 7.2591 2.35449 7.03809 2.35449C6.81707 2.35449 6.60511 2.44229 6.44883 2.59857C6.29255 2.75485 6.20475 2.96681 6.20475 3.18783V4.02116H4.53809C3.87504 4.02116 3.23916 4.28455 2.77032 4.75339C2.30148 5.22223 2.03809 5.85812 2.03809 6.52116V16.5212C2.03809 17.1842 2.30148 17.8201 2.77032 18.2889C3.23916 18.7578 3.87504 19.0212 4.53809 19.0212H16.2048C16.8678 19.0212 17.5037 18.7578 17.9725 18.2889C18.4414 17.8201 18.7048 17.1842 18.7048 16.5212V6.52116C18.7048 5.85812 18.4414 5.22223 17.9725 4.75339C17.5037 4.28455 16.8678 4.02116 16.2048 4.02116ZM17.0381 16.5212C17.0381 16.7422 16.9503 16.9541 16.794 17.1104C16.6377 17.2667 16.4258 17.3545 16.2048 17.3545H4.53809C4.31707 17.3545 4.10511 17.2667 3.94883 17.1104C3.79255 16.9541 3.70475 16.7422 3.70475 16.5212V10.6878H17.0381V16.5212ZM17.0381 9.02116H3.70475V6.52116C3.70475 6.30014 3.79255 6.08818 3.94883 5.9319C4.10511 5.77562 4.31707 5.68783 4.53809 5.68783H6.20475V6.52116C6.20475 6.74217 6.29255 6.95413 6.44883 7.11041C6.60511 7.26669 6.81707 7.35449 7.03809 7.35449C7.2591 7.35449 7.47106 7.26669 7.62734 7.11041C7.78362 6.95413 7.87142 6.74217 7.87142 6.52116V5.68783H12.8714V6.52116C12.8714 6.74217 12.9592 6.95413 13.1155 7.11041C13.2718 7.26669 13.4837 7.35449 13.7048 7.35449C13.9258 7.35449 14.1377 7.26669 14.294 7.11041C14.4503 6.95413 14.5381 6.74217 14.5381 6.52116V5.68783H16.2048C16.4258 5.68783 16.6377 5.77562 16.794 5.9319C16.9503 6.08818 17.0381 6.30014 17.0381 6.52116V9.02116Z" fill="white"/>
</svg>
