<svg width="25" height="25" viewBox="0 0 25 25" fill="none" xmlns="http://www.w3.org/2000/svg">
<path d="M11.6094 20.4V4.6C11.6094 3.1 10.9694 2.5 9.37938 2.5H5.33938C3.74937 2.5 3.10938 3.1 3.10938 4.6V20.4C3.10938 21.9 3.74937 22.5 5.33938 22.5H9.37938C10.9694 22.5 11.6094 21.9 11.6094 20.4Z" fill="white"/>
<path d="M22.1094 11.4V4.6C22.1094 3.1 21.4694 2.5 19.8794 2.5H15.8394C14.2494 2.5 13.6094 3.1 13.6094 4.6V11.4C13.6094 12.9 14.2494 13.5 15.8394 13.5H19.8794C21.4694 13.5 22.1094 12.9 22.1094 11.4Z" fill="white"/>
<path d="M22.1094 20.4V17.6C22.1094 16.1 21.4694 15.5 19.8794 15.5H15.8394C14.2494 15.5 13.6094 16.1 13.6094 17.6V20.4C13.6094 21.9 14.2494 22.5 15.8394 22.5H19.8794C21.4694 22.5 22.1094 21.9 22.1094 20.4Z" fill="white"/>
</svg>
