<svg width="18" height="15" viewBox="0 0 18 15" fill="none" xmlns="http://www.w3.org/2000/svg">
<path d="M8.97588 4.22309L9.0126 4.82863L8.40056 4.75448C6.17271 4.47025 4.22641 3.50633 2.57389 1.88744L1.76599 1.08417L1.5579 1.67735C1.11723 2.99965 1.39877 4.3961 2.31683 5.33531C2.80647 5.85434 2.6963 5.92849 1.85168 5.61954C1.5579 5.52067 1.30084 5.44653 1.27636 5.4836C1.19067 5.57011 1.48445 6.69468 1.71703 7.13957C2.03529 7.75746 2.68406 8.363 3.39403 8.72138L3.99384 9.00562L3.28386 9.01797C2.59837 9.01797 2.57389 9.03033 2.64734 9.28985C2.89216 10.0931 3.85919 10.9458 4.93638 11.3166L5.69532 11.5761L5.03431 11.9715C4.05504 12.54 2.9044 12.8613 1.75375 12.886C1.20291 12.8984 0.75 12.9478 0.75 12.9849C0.75 13.1085 2.24339 13.8005 3.11249 14.0724C5.7198 14.8756 8.81674 14.5296 11.1425 13.1579C12.795 12.1816 14.4476 10.2414 15.2187 8.363C15.6349 7.36201 16.0511 5.53303 16.0511 4.65562C16.0511 4.08715 16.0878 4.01301 16.7733 3.33332C17.1773 2.93786 17.5567 2.50534 17.6302 2.38176C17.7526 2.14695 17.7404 2.14695 17.1161 2.35704C16.0756 2.72778 15.9287 2.67835 16.4428 2.12224C16.8223 1.72678 17.2752 1.01002 17.2752 0.799938C17.2752 0.762865 17.0916 0.824654 16.8835 0.935876C16.6632 1.05946 16.1735 1.24482 15.8063 1.35605L15.1453 1.56613L14.5455 1.15832C14.215 0.935876 13.7498 0.688717 13.505 0.614569C12.8807 0.441558 11.9259 0.466274 11.3628 0.664001C9.83274 1.22011 8.86571 2.65363 8.97588 4.22309Z" fill="white"/>
</svg>
