<svg width="19" height="19" viewBox="0 0 19 19" fill="none" xmlns="http://www.w3.org/2000/svg">
<path d="M9.5012 0.166107C6.9664 0.166107 6.64828 0.177191 5.65272 0.222497C4.65909 0.267997 3.98087 0.425304 3.38741 0.656112C2.77355 0.894504 2.25282 1.2134 1.73404 1.73237C1.21486 2.25116 0.895972 2.77188 0.656803 3.38556C0.425411 3.9792 0.26791 4.65763 0.223187 5.65086C0.178659 6.64642 0.166992 6.96473 0.166992 9.49954C0.166992 12.0343 0.17827 12.3515 0.223382 13.347C0.269077 14.3407 0.426384 15.0189 0.656997 15.6124C0.895583 16.2262 1.21448 16.7469 1.73345 17.2657C2.25204 17.7849 2.77277 18.1046 3.38625 18.343C3.98009 18.5738 4.65851 18.7311 5.65194 18.7766C6.6475 18.8219 6.96542 18.833 9.50003 18.833C12.035 18.833 12.3522 18.8219 13.3477 18.7766C14.3414 18.7311 15.0204 18.5738 15.6142 18.343C16.2279 18.1046 16.7478 17.7849 17.2664 17.2657C17.7856 16.7469 18.1045 16.2262 18.3437 15.6125C18.5731 15.0189 18.7306 14.3405 18.7773 13.3472C18.822 12.3517 18.8337 12.0343 18.8337 9.49954C18.8337 6.96473 18.822 6.64662 18.7773 5.65105C18.7306 4.65743 18.5731 3.9792 18.3437 3.38575C18.1045 2.77188 17.7856 2.25116 17.2664 1.73237C16.7472 1.2132 16.2281 0.894309 15.6136 0.656112C15.0186 0.425304 14.34 0.267997 13.3464 0.222497C12.3508 0.177191 12.0339 0.166107 9.49828 0.166107H9.5012Z" fill="white"/>
<path fill-rule="evenodd" clip-rule="evenodd" d="M8.66379 1.84895C8.82637 1.8487 9.00126 1.84878 9.19 1.84886L9.50108 1.84895C11.9931 1.84895 12.2885 1.8579 13.2726 1.90262C14.1826 1.94423 14.6765 2.09629 15.0055 2.22404C15.441 2.39321 15.7516 2.59543 16.078 2.9221C16.4047 3.24877 16.6069 3.55989 16.7765 3.99545C16.9042 4.32406 17.0565 4.81796 17.0979 5.72796C17.1426 6.71186 17.1524 7.00742 17.1524 9.49828C17.1524 11.9891 17.1426 12.2847 17.0979 13.2686C17.0563 14.1786 16.9042 14.6725 16.7765 15.0011C16.6073 15.4367 16.4047 15.7468 16.078 16.0733C15.7514 16.4 15.4412 16.6022 15.0055 16.7714C14.6769 16.8997 14.1826 17.0514 13.2726 17.093C12.2887 17.1377 11.9931 17.1474 9.50108 17.1474C7.00886 17.1474 6.71349 17.1377 5.72959 17.093C4.81958 17.051 4.32569 16.8989 3.99649 16.7712C3.56093 16.602 3.24982 16.3998 2.92315 16.0731C2.59648 15.7464 2.39425 15.4361 2.2247 15.0003C2.09695 14.6717 1.94469 14.1778 1.90328 13.2678C1.85855 12.2839 1.84961 11.9884 1.84961 9.49595C1.84961 7.00353 1.85855 6.70953 1.90328 5.72563C1.94489 4.81562 2.09695 4.32173 2.2247 3.99272C2.39387 3.55716 2.59648 3.24605 2.92315 2.91938C3.24982 2.59271 3.56093 2.39049 3.99649 2.22093C4.3255 2.09259 4.81958 1.94093 5.72959 1.89912C6.5906 1.86023 6.92427 1.84856 8.66379 1.84662V1.84895ZM14.4832 3.39933C13.8649 3.39933 13.3632 3.90042 13.3632 4.51896C13.3632 5.1373 13.8649 5.63897 14.4832 5.63897C15.1015 5.63897 15.6032 5.1373 15.6032 4.51896C15.6032 3.90062 15.1015 3.39895 14.4832 3.39895V3.39933ZM4.70789 9.49942C4.70789 6.85242 6.85399 4.70632 9.50099 4.70632H9.5008C12.1478 4.70632 14.2933 6.85242 14.2933 9.49942C14.2933 12.1464 12.148 14.2916 9.50099 14.2916C6.85399 14.2916 4.70789 12.1464 4.70789 9.49942Z" fill="#101010"/>
<path d="M9.50079 6.38965C11.2189 6.38965 12.6119 7.78247 12.6119 9.50079C12.6119 11.2189 11.2189 12.6119 9.50079 12.6119C7.78247 12.6119 6.38965 11.2189 6.38965 9.50079C6.38965 7.78247 7.78247 6.38965 9.50079 6.38965Z" fill="#101010"/>
</svg>
