<svg width="25" height="25" viewBox="0 0 25 25" fill="none" xmlns="http://www.w3.org/2000/svg">
<path d="M5.60938 21.5C5.05938 21.5 4.58871 21.3043 4.19738 20.913C3.80604 20.5217 3.61004 20.0507 3.60938 19.5V5.5C3.60938 4.95 3.80538 4.47933 4.19738 4.088C4.58938 3.69667 5.06004 3.50067 5.60938 3.5H16.6094L21.6094 8.5V19.5C21.6094 20.05 21.4137 20.521 21.0224 20.913C20.631 21.305 20.16 21.5007 19.6094 21.5H5.60938ZM7.60938 17.5H17.6094V15.5H7.60938V17.5ZM7.60938 13.5H17.6094V11.5H7.60938V13.5ZM15.6094 9.5H19.6094L15.6094 5.5V9.5ZM7.60938 9.5H12.6094V7.5H7.60938V9.5Z" fill="white"/>
</svg>
