<svg width="34" height="34" viewBox="0 0 34 34" fill="none" xmlns="http://www.w3.org/2000/svg">
<path d="M17 28C19.9174 28 22.7153 26.8411 24.7782 24.7782C26.8411 22.7153 28 19.9174 28 17C28 14.0826 26.8411 11.2847 24.7782 9.22183C22.7153 7.15893 19.9174 6 17 6C14.0826 6 11.2847 7.15893 9.22183 9.22183C7.15893 11.2847 6 14.0826 6 17C6 19.9174 7.15893 22.7153 9.22183 24.7782C11.2847 26.8411 14.0826 28 17 28ZM17 3.25C18.8057 3.25 20.5937 3.60565 22.2619 4.29666C23.9301 4.98766 25.4459 6.00048 26.7227 7.27728C27.9995 8.55409 29.0123 10.0699 29.7033 11.7381C30.3943 13.4063 30.75 15.1943 30.75 17C30.75 20.6467 29.3013 24.1441 26.7227 26.7227C24.1441 29.3013 20.6467 30.75 17 30.75C9.39625 30.75 3.25 24.5625 3.25 17C3.25 13.3533 4.69866 9.85591 7.27728 7.27728C9.85591 4.69866 13.3533 3.25 17 3.25ZM17.6875 10.125V17.3437L23.875 21.015L22.8437 22.7062L15.625 18.375V10.125H17.6875Z" fill="white"/>
</svg>
