<svg width="25" height="25" viewBox="0 0 25 25" fill="none" xmlns="http://www.w3.org/2000/svg">
<g clip-path="url(#clip0_1132_3488)">
<path d="M12.6094 0.5C11.0401 0.5 9.84015 1.7 9.84015 3.26923V8.80769C9.84015 10.3769 11.0401 11.5769 12.6094 11.5769H18.1478L21.8401 15.2692V11.5769C23.4094 11.5769 24.6094 10.3769 24.6094 8.80769V3.26923C24.6094 1.7 23.4094 0.5 21.8401 0.5H12.6094ZM16.4752 3.26923H18.0611L19.6192 8.80769H18.2346L17.8589 7.42308H16.4743L16.1291 8.80769H14.9171L16.4752 3.26923ZM17.2248 4.19231C17.1325 4.56154 17.0291 5.012 16.9358 5.28892L16.6774 6.5H17.7731L17.5128 5.288C17.3291 5.012 17.2248 4.56154 17.2248 4.19231ZM3.37861 9.73077C1.80938 9.73077 0.609375 10.9308 0.609375 12.5V18.0385C0.609375 19.6077 1.80938 20.8077 3.37861 20.8077V24.5L7.07091 20.8077H12.6094C14.1786 20.8077 15.3786 19.6077 15.3786 18.0385V12.5H12.6094C10.8555 12.5 9.46538 11.3 9.00384 9.73077H3.37861ZM7.61922 12.4132C9.18845 12.4132 9.92691 13.7055 9.92691 15.1825C9.92691 16.4748 9.48291 17.2945 8.74445 17.6637C9.11368 17.8483 9.55122 17.9462 10.0128 18.0385L9.66753 18.9615C9.02138 18.7769 8.35122 18.4889 7.70507 18.2111C7.61276 18.1188 7.45122 18.1252 7.35891 18.1252C6.25122 18.0329 5.22476 17.1154 5.22476 15.2692C5.22476 13.7 6.1423 12.4132 7.61922 12.4132ZM7.61922 13.4231C6.88076 13.4231 6.52261 14.2538 6.52261 15.2692C6.52261 16.3769 6.88076 17.1154 7.61922 17.1154C8.35768 17.1154 8.74353 16.2846 8.74353 15.2692C8.74353 14.2538 8.35768 13.4231 7.61922 13.4231Z" fill="white"/>
</g>
<defs>
<clipPath id="clip0_1132_3488">
<rect width="24" height="24" fill="white" transform="translate(0.609375 0.5)"/>
</clipPath>
</defs>
</svg>
